PathFileType	4	(X/Y/Z)	OpenSim_Sub05_CSBaseline_Gyro.trc
DataRate	CameraRate	NumFrames	NumMarkers	Units	OrigDataRate	OrigDataStartFrame	OrigNumFrames
100	100	40	8	m	100	5279	10557
Frame#	Time	torso_imu_offset_imu	pelvis_imu_offset_imu	tibia_r_imu_offset_imu	femur_r_imu_offset_imu	tibia_l_imu_offset_imu	femur_l_imu_offset_imu	toes_r_imu_offset_imu	toes_l_imu_offset_imu
				X1	Y1	Z1	X2	Y2	Z2	X3	Y3	Z3	X4	Y4	Z4	X5	Y5	Z5	X6	Y6	Z6	X7	Y7	Z7	X8		Y8	Z8	

5279	52.78000000	0.39783699	-0.08110439	0.26302357	-0.10819893	0.07281447	-0.04175192	-0.04976605	-0.07449706	-0.67113416	-0.08521165	-0.13943485	-0.72994266	0.50040957	0.73921846	-3.88980103	-0.29841588	-0.12792932	-0.10485629	-0.01177928	-0.08116686	-0.16111472	0.25524122	3.69507387	-0.63453394
5280	52.79000000	0.39231465	-0.08276120	0.25026898	-0.09456848	0.06457808	-0.02228149	-0.04823710	-0.06449445	-0.67383435	-0.01113403	-0.14520446	-0.72265731	0.49221156	0.66291173	-3.87378783	-0.15663969	-0.16089436	-0.04427929	-0.01998371	-0.09457084	-0.17005293	0.26279510	3.72967944	-0.73320674
5281	52.80000000	0.39064370	-0.07687338	0.24821207	-0.09050824	0.04337374	-0.00723190	-0.05885356	-0.03827551	-0.66832631	0.07141848	-0.13343432	-0.70580181	0.36905526	0.58238020	-3.85092216	-0.03188702	-0.19527247	0.04036029	-0.02076388	-0.12800124	-0.18474153	0.28621547	3.68467802	-0.86336873
5282	52.81000000	0.38197133	-0.07228185	0.22713110	-0.10208799	0.02749897	0.01700614	-0.08997406	-0.03842146	-0.69719275	0.09521287	-0.06195647	-0.69943314	0.21306809	0.52011128	-3.78869968	0.09649373	-0.20369339	0.15229238	-0.01819174	-0.16235612	-0.20025467	0.35624399	3.58432992	-1.02026425
5283	52.82000000	0.36723944	-0.05583055	0.22375767	-0.08720617	0.02389137	0.04894669	-0.11528025	-0.03333383	-0.72837193	0.10343821	0.01101805	-0.69912630	0.16436764	0.49470227	-3.70071792	0.14925093	-0.23770123	0.22128966	-0.01823905	-0.18380662	-0.21761753	0.43262128	3.40886874	-1.14380207
5284	52.83000000	0.35654642	-0.03915216	0.21220941	-0.07719217	0.00322532	0.06546389	-0.14022256	-0.03507758	-0.74435216	0.13602364	0.00600277	-0.68873817	0.11365953	0.45466558	-3.63150725	0.12494089	-0.27111899	0.26963048	-0.03551052	-0.21431763	-0.22762545	0.44184895	3.15585161	-1.21963961
5285	52.84000000	0.32699152	-0.02428109	0.20201877	-0.07032978	-0.01495288	0.08306321	-0.17535321	-0.04009785	-0.77990229	0.11596553	-0.01044575	-0.64342330	0.01719764	0.44539544	-3.53482625	0.06767010	-0.28614083	0.27592042	-0.03995622	-0.24945248	-0.23939185	0.42860462	2.86310326	-1.25781363
5286	52.85000000	0.30943668	-0.01006442	0.19252491	-0.07437526	-0.03793048	0.09585740	-0.18450035	-0.03962837	-0.83219587	0.07532606	0.05479959	-0.58812071	-0.13440433	0.44166980	-3.32015225	0.02840671	-0.28966613	0.22865058	-0.05946789	-0.28827128	-0.26511173	0.35111820	2.57142061	-1.24970288
5287	52.86000000	0.28770252	-0.00342668	0.18548289	-0.08930869	-0.08477134	0.10211386	-0.20523158	-0.02541890	-0.89518945	0.02115034	0.10664293	-0.52262570	-0.24619289	0.41382314	-3.10918434	-0.01538531	-0.32298984	0.18121904	-0.05480388	-0.34080127	-0.30046013	0.18464368	2.26421309	-1.16328012
5288	52.87000000	0.27135742	-0.00873017	0.18269123	-0.12405899	-0.13162331	0.09960710	-0.26638742	-0.00772277	-0.96603762	-0.02531927	0.09916006	-0.43854860	-0.33818962	0.31766372	-2.89476681	-0.03710380	-0.37217397	0.08226495	-0.01444041	-0.39752227	-0.33873185	0.02350303	1.96060703	-1.01369506
5289	52.88000000	0.26436024	-0.01424833	0.18078357	-0.18026894	-0.17149040	0.09560883	-0.29751821	0.01532556	-1.03450130	-0.03110997	0.07073250	-0.36826237	-0.37205192	0.23277542	-2.59419127	-0.01085715	-0.39609522	-0.00169744	-0.01084637	-0.47470912	-0.37153980	0.00655335	1.72797965	-0.84523077
5290	52.89000000	0.24441086	-0.02202229	0.17689271	-0.23973869	-0.19985448	0.09470282	-0.27802206	0.01255001	-1.13236449	-0.02419201	0.08801485	-0.32029997	-0.43406174	0.12562041	-2.13621012	0.01451899	-0.46937301	-0.02227952	-0.03811343	-0.57644556	-0.40585367	0.11728840	1.57601316	-0.71119805
5291	52.90000000	0.21897045	-0.03168736	0.15523587	-0.27429687	-0.20157458	0.07797703	-0.26376300	0.02398759	-1.25821712	-0.08528139	0.14753270	-0.27371920	-0.42856310	-0.00367479	-1.65152825	0.03313124	-0.52622384	-0.01750971	-0.04519811	-0.70189418	-0.41856744	0.28190445	1.40886134	-0.61639497
5292	52.91000000	0.17801693	-0.02712896	0.13313607	-0.28195832	-0.18522819	0.06998967	-0.24573481	0.04275241	-1.34100627	-0.21448780	0.18066249	-0.21711478	-0.19058382	-0.13949222	-1.15188461	0.05603406	-0.47012525	-0.02186697	-0.02803468	-0.85192196	-0.41623213	0.35222872	1.16980648	-0.55136646
5293	52.92000000	0.12950239	-0.02282170	0.11515343	-0.29302881	-0.17587227	0.06533213	-0.25456943	0.06034818	-1.42753034	-0.33828999	0.18652118	-0.15795208	-0.00028157	-0.22982559	-0.65162236	0.02303523	-0.34442412	-0.09505993	-0.03547803	-1.02289056	-0.39929487	0.00591677	0.62910904	-0.38697712
5294	52.93000000	0.09102611	0.00048060	0.09689561	-0.29101229	-0.16809337	0.07402784	-0.26221092	0.08267128	-1.52181044	-0.44375300	0.23513989	-0.11738363	-0.03222392	-0.28849344	-0.21259674	0.01480474	-0.22755111	-0.22364445	-0.03189626	-1.22519707	-0.37411464	-0.74057565	-0.19971382	-0.07723005
5295	52.94000000	0.06388046	0.02219269	0.04579171	-0.28727608	-0.18086651	0.06814595	-0.25124975	0.08975717	-1.61347790	-0.52065585	0.31001983	-0.05945139	-0.03135159	-0.33083073	0.29444233	0.08832305	-0.23638018	-0.38525941	-0.05610923	-1.46744593	-0.34949369	-0.80772457	-0.99538633	0.10369544
5296	52.95000000	0.02840498	0.05478905	0.00826456	-0.28601215	-0.21828743	0.05219416	-0.26846273	0.10001598	-1.72253441	-0.54302866	0.31800756	0.03292242	-0.07546626	-0.38286125	0.91839443	0.27801538	-0.29334953	-0.52215753	-0.06174591	-1.74215298	-0.32357618	-0.63034309	-1.65460404	0.06063352
5297	52.96000000	-0.00898695	0.09338004	-0.02184691	-0.29359183	-0.21954874	0.04979074	-0.27924384	0.09861846	-1.84499299	-0.56014446	0.30469248	0.14790997	-0.24051541	-0.42973219	1.44486550	0.51111711	-0.30645885	-0.49599170	-0.13159010	-2.07617881	-0.30316989	-0.55807005	-2.38067319	-0.10726739
5298	52.97000000	-0.06294092	0.12055618	-0.04116836	-0.31711394	-0.18950954	0.06570267	-0.35135025	0.07510493	-1.97333176	-0.63281421	0.35472696	0.28640772	-0.41861786	-0.45331954	1.89144764	0.60524341	-0.35136687	-0.37170146	-0.18460528	-2.45760941	-0.30281449	-0.10058691	-2.66897722	-0.02202262
5299	52.98000000	-0.12611465	0.15711449	-0.05247573	-0.40977675	-0.12911855	0.10008158	-0.44363601	-0.00934380	-2.13038752	-0.73811322	0.47841257	0.46137882	-0.60296955	-0.65321267	1.95832443	0.36144668	-0.54300429	-0.16824894	-0.17973191	-2.90175088	-0.31946755	-0.25380135	-1.62803751	0.34611162
5300	52.99000000	-0.18629649	0.16444319	-0.07928686	-0.48687324	-0.02466450	0.12042423	-0.57228398	-0.05539393	-2.30636357	-0.78928882	0.64006679	0.64944249	-0.31781941	-0.68184719	1.17949408	0.08495040	-0.65639352	0.10556447	-0.12061784	-3.43176982	-0.36127185	-0.04802430	-1.01396289	0.84940462
5301	53.00000000	-0.25761662	0.16942605	-0.10396526	-0.53990442	0.02591016	0.11197979	-0.72905583	-0.13599536	-2.44092851	-0.80579796	0.77045235	0.87744199	0.20617689	-0.47800647	0.65279209	0.02583550	-0.53759652	0.45464756	-0.18267566	-4.04546773	-0.43726005	0.62700792	-1.23113319	0.89320882
5302	53.01000000	-0.33563657	0.13417261	-0.11625908	-0.55586273	0.02315248	0.08393591	-0.79553282	-0.21394028	-2.50603596	-0.83596590	0.87729993	1.11705746	0.04322138	-0.26103341	0.96756965	0.29664908	-0.30437004	0.72431433	-0.16856919	-4.66338565	-0.59379369	0.54957062	-1.20772838	0.34265506
5303	53.02000000	-0.43159851	0.08447933	-0.12764741	-0.51468023	0.05126194	0.01285584	-0.77140865	-0.29846603	-2.57850975	-0.79863180	0.99981007	1.33932147	-0.67971698	-0.30141118	1.23900157	0.50374023	-0.27241275	0.71588317	-0.29872840	-5.19436484	-0.70537273	-0.00429441	-0.93518936	-0.01243637
5304	53.03000000	-0.51354417	0.04082676	-0.14774259	-0.44937568	0.07460828	-0.08356367	-0.71537499	-0.31743314	-2.65209429	-0.70207180	1.10501249	1.55091454	-1.09359378	-0.45378568	1.15005091	0.63777134	-0.27571018	0.57817792	-0.76367063	-5.57129133	-0.76348426	-0.13827980	-0.67088703	0.04106627
5305	53.04000000	-0.60845234	-0.00999964	-0.17279503	-0.40182974	0.06233067	-0.17811164	-0.42225781	-0.25194950	-2.65155341	-0.68166362	1.16108000	1.78363294	-0.69993754	-0.56583703	1.05557440	0.67958554	-0.10415285	0.43517863	-0.70543671	-5.69944809	-0.82961428	0.00650902	-0.48405880	0.14018554
5306	53.05000000	-0.68676337	-0.03057664	-0.18853186	-0.35624589	0.05715215	-0.24797626	0.15812339	-0.20661284	-2.59767144	-0.63343409	1.36507513	1.96815877	0.10250251	-0.54516152	1.04389408	0.33798438	-0.09899327	0.39384378	-0.37040662	-5.50306778	-0.91497330	-0.00643569	-0.36867267	0.08833103
5307	53.06000000	-0.73036947	-0.03022252	-0.23117574	-0.31974545	0.06031672	-0.27703923	0.84430989	-0.28111534	-2.60371749	-0.48002881	1.45950003	2.06182194	0.43749759	-0.43617304	0.97880776	-0.21229957	-0.28411332	0.49316518	-0.36616185	-5.61767066	-0.98258560	-0.17717306	-0.28539178	0.02076408
5308	53.07000000	-0.75902386	-0.03529492	-0.30246590	-0.29362723	0.09096301	-0.28518476	1.14224234	-0.40964411	-2.66070114	-0.22030754	1.36431280	2.10711027	0.10921856	-0.42159384	0.85405778	-0.51279207	-0.40590111	0.60949554	-0.31637794	-5.42586445	-1.10777429	-0.26858720	-0.22190683	0.05519553
5309	53.08000000	-0.75150447	-0.06078827	-0.39482766	-0.26628957	0.11682250	-0.26908199	0.99863575	-0.50273739	-2.57016694	-0.00514498	1.28022302	2.13172719	-0.36586613	-0.40250793	0.80021309	-0.44659030	-0.43348492	0.68723456	-0.01161484	-5.04873207	-1.34951311	-0.30227840	-0.17092148	0.12327878
5310	53.09000000	-0.70189957	-0.08694179	-0.48170540	-0.24746629	0.12830976	-0.25168467	0.63894472	-0.37328442	-2.25866888	0.10995364	1.07525224	2.11660493	-0.59821889	-0.37841523	0.81089390	-0.20942014	-0.44860130	0.70947750	0.16753340	-4.80154500	-1.41862704	-0.34464975	-0.16496606	0.14426746
5311	53.10000000	-0.60741514	-0.10161127	-0.52503051	-0.21626528	0.14402247	-0.21060519	0.14773366	-0.13790859	-1.88719671	0.07901503	0.82728589	2.07054465	-0.50073216	-0.35112953	0.80738231	-0.09566400	-0.48051411	0.69701008	0.18449598	-4.32998711	-1.37166147	-0.40718700	-0.19414736	0.12277202
5312	53.11000000	-0.52646978	-0.10274178	-0.51285618	-0.15535834	0.17699941	-0.16212506	-0.29793828	-0.00345728	-1.60840866	0.11014777	0.70271952	1.94478928	-0.24885171	-0.29890380	0.76925345	-0.12817832	-0.43362968	0.67428356	-0.37922385	-3.75630587	-1.23191497	-0.41792252	-0.18047301	0.13977139
5313	53.12000000	-0.48674120	-0.10590686	-0.46462744	-0.07717216	0.21716583	-0.12099100	-0.65348207	0.09442040	-1.32488880	0.43793961	0.62383328	1.78741598	-0.06666846	-0.24958477	0.74937163	-0.28791030	-0.38350477	0.62704327	-0.27431865	-2.19317101	-0.76643780	-0.37901289	-0.13001363	0.15196595
5314	53.13000000	-0.47672226	-0.09611630	-0.40729752	-0.00892174	0.24063758	-0.06672072	-0.88441211	0.13334497	-0.82957089	0.65339908	0.55015344	1.66385144	0.03286860	-0.22730480	0.76885016	-0.50241584	-0.34714850	0.57703765	0.04050734	-0.55924892	-0.32165209	-0.33709124	-0.13785494	0.13054752
5315	53.14000000	-0.45904850	-0.07494046	-0.38883669	0.02682301	0.23900345	-0.00346836	-1.38340458	0.21618697	-0.10163342	0.60342096	0.50283293	1.55948921	0.15713122	-0.19998912	0.76786313	-0.63055555	-0.30564547	0.54232161	-0.06090674	-0.00747355	-0.12409852	-0.33110064	-0.17769216	0.09772663
5316	53.15000000	-0.46682383	-0.05828516	-0.37421322	0.02994789	0.22710381	0.08534216	-1.88103753	0.30505690	0.61120457	0.50962969	0.48067470	1.46677712	0.23393480	-0.19992577	0.71755336	-0.54838530	-0.27858850	0.51234197	0.34475693	1.10919282	0.15394775	-0.31267205	-0.21348241	0.07234809
5317	53.16000000	-0.47379256	-0.05524663	-0.34905194	0.03425286	0.19438438	0.13374864	-1.56464401	0.28389363	1.10742608	0.56750869	0.48287668	1.39815949	0.25290817	-0.16537195	0.70928998	-0.28800001	-0.28913358	0.50561033	0.51572594	1.77748943	0.28817354	-0.24403817	-0.23719826	0.02490378
5318	53.17000000	-0.47171209	-0.05525018	-0.31541081	0.02834165	0.14791604	0.16011960	-1.01110602	0.21850772	1.51105410	0.65573712	0.48545082	1.36343924	0.15889620	-0.13452053	0.72141733	0.02155793	-0.34677174	0.51475981	0.28764271	1.94061714	0.34670882	-0.18666709	-0.25168800	0.00373591
